# xmcd
#
# Track frame offsets:
#	150
#	21362
#	44203
#	66391
#	88320
#	110192
#	128041
#	147393
#	166964
#	186172
#	209584
#	232079
#	253281
#	278694
#	296342
#
# Disc length: 4537 seconds
#
# Revision: 1
# Processed by: cddbd v1.4b41PL2 Copyright (c) Steve Scherf et al.
# Submitted via: audiograbber 1.80
#
DISCID=fb11b70f
DTITLE=En Vogue - Best Of En Vogue
DYEAR=1900
DGENRE=
TTITLE0=My Lovin' (You're Never Gonna Get It)
TTITLE1=Hold On
TTITLE2=Whatta Man
TTITLE3=Free Your Mind
TTITLE4=Don't Let Go (Love)
TTITLE5=Giving Him Something He Can Feel
TTITLE6=No Fool No More
TTITLE7=Whatever
TTITLE8=Lies
TTITLE9=Give It Up, Turn It Loose
TTITLE10=Runaway Love
TTITLE11=Too Gone, Too Long
TTITLE12=Let It Flow
TTITLE13=Love Don't Love You
TTITLE14=Silent Night
EXTD=
EXTT0=
EXTT1=
EXTT2=
EXTT3=
EXTT4=
EXTT5=
EXTT6=
EXTT7=
EXTT8=
EXTT9=
EXTT10=
EXTT11=
EXTT12=
EXTT13=
EXTT14=
PLAYORDER=
